<?xml version="1.0" encoding="utf-8"?>
<!-- Generator: Adobe Illustrator 24.0.1, SVG Export Plug-In . SVG Version: 6.00 Build 0)  -->
<svg version="1.1" xmlns="http://www.w3.org/2000/svg" xmlns:xlink="http://www.w3.org/1999/xlink" x="0px" y="0px"
	 viewBox="0 0 297.5 269.4" style="enable-background:new 0 0 297.5 269.4;" xml:space="preserve">
<g id="Layer_1">
	<g>
		<path d="M460.3-58.9H228.2c-1.6,0-2.2-2-1-2.9l144-111.4c1.2-1,0.6-2.9-1-2.9l-119.4,0.1c-19,0-36.7,5.8-51.3,16.6
			c-13.5,10-23.8,23.9-29.7,40.2c-5.9,16.2-6.9,33.5-3,49.9c2.1,8.7,5.5,16.9,10.2,24.4c0.4,0.7,1.6,2.4,1.9,2.9
			c4.6,6.7,10.1,12.9,16.6,18.3l139,116.6c0.7,0.6,1.7,0.5,2.3-0.2L461.6-56.2C462.5-57.2,461.7-58.9,460.3-58.9z M191.9-54.7
			c-0.8,0.6-1.9,0.4-2.4-0.5c-11.5-19.9-10.7-42-4.6-58.7c8.1-22.3,29.7-46.2,66-46.2l72.5,0c1.6,0,2.2,2,1,2.9L191.9-54.7z
			 M427.3-40.2L334.8,70.1c-0.6,0.7-1.6,0.8-2.3,0.2L205.7-36.1c-2.6-2.2-5-4.5-7.1-6.8H426C427.4-42.9,428.2-41.2,427.3-40.2z"/>
		<path d="M305.6-76.4c-0.3-0.4-0.4-0.7-0.4-1.1c-2.3,1.9-3.4,3-3.4,3.5c0,0.6,0.4,1.1,1.3,1.4c1.2,0.5,2.2,1.3,2.9,2.3
			c1-1.6,1.5-2.6,1.5-3.1c0-0.3-0.1-0.6-0.3-0.9c-0.2-0.3-0.5-0.7-0.8-1C306.1-75.7,305.9-76,305.6-76.4z"/>
		<path d="M312.4-76.4c-0.3-0.4-0.4-0.7-0.4-1.1c-2.3,1.9-3.4,3-3.4,3.5c0,0.6,0.4,1.1,1.3,1.4c1.2,0.5,2.2,1.3,2.9,2.3
			c1-1.6,1.5-2.6,1.5-3.1c0-0.3-0.1-0.6-0.3-0.9c-0.2-0.3-0.5-0.7-0.8-1C312.9-75.7,312.6-76,312.4-76.4z"/>
		<path d="M367.5-78.5c-0.3-0.3-0.5-0.7-0.8-1s-0.4-0.7-0.4-1.1c-2.3,1.9-3.4,3-3.4,3.5c0,0.6,0.4,1.1,1.3,1.4
			c1.2,0.5,2.2,1.3,2.9,2.3c1-1.6,1.5-2.6,1.5-3.1c0-0.3-0.1-0.6-0.3-0.9C368-77.9,367.7-78.2,367.5-78.5z"/>
		<g>
			<path d="M317.2-85.5h2h6.2c1.4,0,2.6-0.5,3.5-1.6c-0.6-0.2-1.1-0.4-1.6-0.5c-0.4-0.2-0.7-0.4-1-0.7c-0.2-0.3-0.4-0.7-0.5-1.2
				c-0.1-0.5-0.1-1.1-0.1-1.9v-31c-3,3.4-5.1,5.2-6.5,5.2c2.3,4,3.4,6.6,3.4,7.8v17.8c0,0.2,0,0.4-0.2,0.6c-0.1,0.2-0.2,0.4-0.4,0.6
				c-0.2,0.2-0.3,0.3-0.5,0.4c-0.2,0.1-0.4,0.2-0.6,0.2h-1.8v0h-1.4c-1.5,0-2.6-0.8-3.3-2.3l-4.5-8.9c-0.8-1.7-1.3-2.8-1.3-3.6
				c0-0.6,0.1-1.4,0.4-2.3l-12.6,12.3c-2,1.9-2.9,3.2-2.9,4c0,0.4,0,0.8,0.1,1c0,0.3,0.1,0.5,0.3,0.8c0.2,0.2,0.4,0.5,0.7,0.7
				c0.3,0.2,0.7,0.4,1.3,0.7l5.5,2.7c1,0.5,1.4,1.1,1.4,2c0,0.4-0.3,0.9-0.8,1.4l-1.5,1.4c-1.2,1.1-1.9,1.7-2.1,1.7
				c-0.4,0-1.3-0.7-2.6-2l-7.9-8c-1.1-1.1-1.7-2-1.7-2.5c0-0.2,0.1-0.5,0.2-1c0.2-0.4,0.4-0.9,0.8-1.6l1.3-2.4l-5.5,5.3
				c-1,0.9-1.5,1.8-1.5,2.6c0,0.5,0.6,1.3,1.9,2.6l9.6,9.6c1.1,1.2,2.3,1.7,3.3,1.7c0.9,0,1.9-0.6,3.2-1.8l6-5.8
				c1.3-1.3,2-2.4,2-3.4c0-1.5-0.8-2.6-2.5-3.4l-6.1-2.9c-0.3-0.3-0.5-0.7-0.5-1.2c0-0.6,0.4-1.2,1.2-2l2.6-2.5
				c0.8-0.7,1.4-1.1,1.8-1.1s1,0.7,1.7,2l3.6,7.1c1,2.1,2.7,3.2,4.8,3.2H317.2z"/>
			<path d="M368.4-98.1c-1,1.1-1.4,2.2-1.4,3.4c0,0.7,0.5,2,1.5,4l1.3,2.6c0.7,1.3,1,2.2,1,2.5c0,0.5-0.2,0.9-0.5,1.3l-3-3.1
				c-1.7-1.7-2.9-2.6-3.6-2.6v0h-3.8l-2.1-4.6c-0.7-1.5-1.3-2.2-1.8-2.2h-12.3c-1.2,0-2.1-0.7-2.8-2l-3.7-7.4l-3.8,3.8
				c0.9,0.4,1.5,1,1.9,1.8l2.3,4.7c1.2,2.4,2.6,3.6,4.4,3.6h11.3l1.2,2.4h-13.3c-2.6,0-5.2-0.9-7.7-2.8v7.2h28.1v0h2
				c0.5,0,1,0.2,1.5,0.6c0.6,0.4,1.2,1,1.7,1.6c0.5,0.6,1,1.3,1.5,2c0.4,0.7,0.7,1.3,0.8,1.8l4.5-4.3c0.4-0.4,0.7-0.7,1-1
				c0.3-0.3,0.5-0.6,0.7-0.8h4.7h0v0h2.8c0.9,0,2-0.7,3.3-2l2.1-2.1l1.2,2.3c0.6,1.3,1.6,1.9,3,1.9h8.2h2.1h0h6.1
				c1.4,0,2.6-0.5,3.5-1.6c-0.6-0.2-1.2-0.4-1.6-0.5c-0.4-0.2-0.7-0.4-1-0.7c-0.2-0.3-0.4-0.7-0.5-1.2c-0.1-0.5-0.1-1.1-0.1-1.9v-31
				c-3,3.4-5.1,5.2-6.5,5.2c2.3,4,3.4,6.6,3.4,7.8v17.8c0,0.2,0,0.4-0.1,0.6c-0.1,0.2-0.2,0.4-0.4,0.6c-0.2,0.2-0.3,0.3-0.5,0.4
				c-0.2,0.1-0.4,0.2-0.6,0.2h-1.8v0h-8.3c-0.9,0-1.6-0.5-2-1.4l-0.8-1.7l7.1-7.1c0.8-1,1.2-1.9,1.2-2.9v-2.9c-0.7,1-1.3,1.5-2,1.5
				h-9.1c-1.6,0-2.7,0.4-3.5,1.1l-5.9,5.9h2.3c0.6,0,1.1,0,1.5,0.1s0.7,0.2,1,0.4s0.6,0.5,0.9,0.9c0.3,0.4,0.6,0.9,0.9,1.6L387-92
				l-0.9,0.9c-0.9,0.9-1.7,1.3-2.4,1.3h-5.8v0h-2.3c-0.1-0.2-0.2-0.5-0.4-0.8c-0.2-0.3-0.3-0.7-0.6-1.2l-1.9-3.9
				c-0.8-1.7-1.3-2.9-1.3-3.6c0-0.6,0.1-1.4,0.4-2.3L368.4-98.1z M391.2-100c0.6,0,0.9,0.6,0.9,1.7c0,0.7-0.4,1.4-1.1,2.2l-0.7,0.7
				L388-100H391.2z"/>
			<path d="M417.2-91.1c0,1.1,0.1,2,0.4,2.7c0.2,0.7,0.7,1.3,1.2,1.7c0.6,0.4,1.3,0.8,2.3,0.9c1,0.2,2.1,0.3,3.6,0.3
				c2.5,0,3.9-0.3,4.3-0.8c-0.7-0.2-1.3-0.4-1.8-0.5c-0.5-0.1-1-0.3-1.3-0.4c-1.1-0.4-2-0.7-2.7-1.2c-0.7-0.4-1.3-0.9-1.7-1.5
				c-0.4-0.6-0.7-1.2-0.9-2c-0.2-0.7-0.3-1.6-0.3-2.6v-28.1c-2.8,3.4-5,5.2-6.5,5.2c2.3,4,3.4,6.6,3.4,7.8V-91.1z"/>
		</g>
	</g>
</g>
<g id="Layer_2">
</g>
</svg>
