<?xml version="1.0" encoding="UTF-8"?><svg id="Layer_1" xmlns="http://www.w3.org/2000/svg" viewBox="0 0 20.71 21.16"><path d="m6.61,20.66c-2.6.05-2.6-4.05,0-4,2.6-.05,2.6,4.05,0,4Zm10,0c-2.6.05-2.6-4.05,0-4,2.6-.05,2.6,4.05,0,4ZM5.76,4.66l2.4,5c4.61.55,8.33.04,9.75-5,0,0-12.15,0-12.15,0Zm-.95-2c6.49,1.5,22.2-4.97,12.1,7.95-.64,1.98-7.78.71-9.2,1.05-4.99,4.2,10.27,1.08,10.9,2,2.13,3.17-16.62,3.53-13.75-.95C7.39,10.94,3.57,1.67.61,2.66c-.91-3.17,3.92-2.56,4.2,0Zm3.35,7h7-7Z" style="fill:none; stroke:#000; stroke-miterlimit:10;"/></svg>